<?xml version="1.0" encoding="UTF-8" standalone="no"?>
<svg
   viewBox="0 0 504.78439 539.52929"
   height="539.5293"
   width="504.78439"
   xml:space="preserve"
   id="svg2"
   version="1.1"
   sodipodi:docname="Logo-San-Pio.svg"
   inkscape:version="1.3.2 (091e20e, 2023-11-25)"
   xmlns:inkscape="http://www.inkscape.org/namespaces/inkscape"
   xmlns:sodipodi="http://sodipodi.sourceforge.net/DTD/sodipodi-0.dtd"
   xmlns="http://www.w3.org/2000/svg"
   xmlns:svg="http://www.w3.org/2000/svg"
   xmlns:rdf="http://www.w3.org/1999/02/22-rdf-syntax-ns#"
   xmlns:cc="http://creativecommons.org/ns#"
   xmlns:dc="http://purl.org/dc/elements/1.1/"><sodipodi:namedview
     id="namedview1"
     pagecolor="#ffffff"
     bordercolor="#000000"
     borderopacity="0.25"
     inkscape:showpageshadow="2"
     inkscape:pageopacity="0.0"
     inkscape:pagecheckerboard="0"
     inkscape:deskcolor="#d1d1d1"
     inkscape:zoom="1.0360617"
     inkscape:cx="251.9155"
     inkscape:cy="272.66716"
     inkscape:window-width="2560"
     inkscape:window-height="1376"
     inkscape:window-x="0"
     inkscape:window-y="0"
     inkscape:window-maximized="1"
     inkscape:current-layer="svg2" /><metadata
     id="metadata8"><rdf:RDF><cc:Work
         rdf:about=""><dc:format>image/svg+xml</dc:format><dc:type
           rdf:resource="http://purl.org/dc/dcmitype/StillImage" /></cc:Work></rdf:RDF></metadata><defs
     id="defs6"><clipPath
       id="clipPath18"
       clipPathUnits="userSpaceOnUse"><path
         id="path16"
         d="M 0,841.89 H 595.276 V 0 H 0 Z" /></clipPath></defs><g
     transform="matrix(1.3333333,0,0,-1.3333333,-144.45871,833.80891)"
     id="g10"><g
       id="g12"><g
         clip-path="url(#clipPath18)"
         id="g14"><g
           transform="translate(453.9873,415.6537)"
           id="g20"><path
             id="path22"
             style="fill:#2b2b2a;fill-opacity:1;fill-rule:nonzero;stroke:none"
             d="m 0,0 c 0.446,1.102 0.68,1.39 0.652,1.651 -0.744,7.334 -0.246,14.515 1.951,21.62 0.531,1.718 0.176,3.983 -0.474,5.736 -1.234,3.326 -4.093,3.826 -6.286,1.052 C -5.915,27.835 -7.146,25.17 -8.451,22.619 -10.712,18.197 -12.85,13.712 -15.373,8.572 -11.714,4.213 -6.855,0.598 0,0 m 2.994,102.973 c -4.223,7.446 -3.918,14.57 -3.404,21.745 0.139,1.946 0.117,3.961 -0.229,5.872 -0.655,3.632 -3.99,4.929 -6.761,2.461 -1.494,-1.329 -2.749,-3.358 -3.248,-5.293 -1.748,-6.778 -3.806,-13.369 -8.445,-19.18 6.574,-4.837 13.304,-7.36 22.087,-5.605 m 8.197,-41.29 c -2.012,2.449 -3.782,4.344 -5.249,6.45 -2.17,3.115 -4.058,6.426 -6.197,9.564 -1.247,1.831 -2.409,3.888 -5.114,4.446 -4.821,-3.928 -6.055,-8.917 -4.445,-14.676 1.646,-5.89 2.915,-11.748 0.394,-18.32 9.342,0.867 15.762,5.169 20.611,12.536 M -98.585,17.94 c 0.736,-5.978 41.588,-142.042 43.704,-145.163 1.035,26.251 2.049,51.955 3.057,77.501 3.818,1.897 7.191,3.573 10.861,5.395 C -48.865,-19.861 -56.64,4.33 -65.544,28.446 -75.857,21.709 -87.122,19.868 -98.585,17.94 m 92.059,-46.789 c 0,-8.861 -0.025,-17.21 0.006,-25.557 0.032,-8.282 -0.861,-16.568 -0.283,-25.618 5.669,2.208 10.745,4.101 15.727,6.219 0.701,0.299 1.314,1.688 1.328,2.581 0.106,7.14 0.063,14.282 0.031,21.423 -10e-4,0.19 -0.395,0.377 -0.804,0.741 -4.765,-1.653 -8.45,-5.704 -13.424,-7.197 2.803,4.671 6.946,7.743 11.461,10.275 2.423,1.359 3.286,3.017 3.315,5.795 0.321,30.578 0.777,61.153 1.166,91.729 0.013,0.929 -0.308,1.862 -0.547,3.205 C 3.987,47.4 -4.1,43.511 -14.445,45.645 c 3.124,7.383 3.585,11.219 2.215,17.631 -0.603,2.822 -1.396,5.615 -1.822,8.462 -0.703,4.694 0.076,9.092 3.295,12.824 2.069,2.398 3.696,3.02 6.338,1.392 2.269,-1.398 4.344,-3.315 6.042,-5.382 2.014,-2.452 3.489,-5.34 5.278,-7.983 1.164,-1.719 2.318,-3.56 5.184,-3.649 0.347,23.876 0.69,47.539 1.039,71.48 -12.093,2.786 -23.708,5.462 -35.351,8.145 -1.2,-6.828 -0.594,-32.829 0.799,-35.701 0.481,0.42 0.993,0.747 1.348,1.199 2.959,3.769 4.909,7.967 5.833,12.714 0.484,2.494 1.215,5.071 2.459,7.255 1.878,3.298 5.807,4.663 9.523,3.794 3.625,-0.847 5.933,-3.126 6.362,-6.864 0.362,-3.161 0.344,-6.365 0.546,-9.546 0.257,-4.091 0.312,-8.217 0.94,-12.253 0.43,-2.761 1.688,-5.392 2.657,-8.332 -1.308,-0.474 -2.398,-1.001 -3.55,-1.264 -7.657,-1.749 -14.755,-0.494 -21.33,3.899 -1.65,1.103 -3.139,2.74 -5.379,2.922 -0.985,-6.993 0.28,-89.673 1.407,-92.709 2.848,0.094 4.241,2.056 5.232,4.324 1.401,3.201 2.62,6.48 3.916,9.726 1.563,3.917 4.568,6.324 8.277,8.059 1.71,0.8 3.259,0.666 4.707,-0.439 C 4.418,33.136 6.563,30.541 6.123,26.524 5.741,23.048 5.787,19.508 5.187,16.076 4.095,9.809 3.967,3.687 6.403,-2.316 6.485,-2.52 6.228,-2.86 6.015,-3.451 c -10.694,-2.903 -18.929,2.098 -27.443,9.654 0.284,-13.939 0.224,-26.894 0.518,-40.665 5.059,1.975 9.514,3.713 14.384,5.613 m -338.938,-153.042 c -0.053,0.899 -0.32,1.771 -0.082,2.471 0.22,0.651 0.946,1.154 1.505,1.663 21.436,19.526 40.348,41.375 58.478,63.911 37.816,47.01 72.102,96.456 101.948,148.927 3.907,6.869 7.505,13.914 11.253,20.874 0.575,1.068 1.083,2.194 1.804,3.157 1.431,1.909 3.888,2.609 6.095,1.869 2.171,-0.728 3.049,-2.366 3.107,-4.543 0.182,-6.843 0.406,-13.685 0.524,-20.529 0.475,-27.531 0.913,-55.062 1.381,-82.594 0.028,-1.655 0.199,-3.308 0.338,-5.512 2.283,0.124 4.378,0.001 6.363,0.41 2.212,0.455 4.131,0.098 6.187,-0.691 6.263,-2.401 12.722,-4.083 19.447,-4.535 1.618,-0.108 3.25,-0.016 5.306,-0.016 0.193,3.287 0.422,6.129 0.516,8.975 0.726,22.043 1.417,44.088 2.138,66.132 0.209,6.384 0.553,12.765 0.679,19.15 0.041,2.067 0.504,3.445 2.659,4.123 2.147,0.674 4.198,1.657 6.705,2.673 1.518,-3.414 3.073,-6.505 4.271,-9.73 1.029,-2.77 2.869,-3.996 5.69,-4.473 9.689,-1.638 19.059,-0.34 28.268,2.751 0.572,0.191 1.12,0.471 1.649,0.766 0.388,0.217 0.727,0.524 1.571,1.148 -2.062,6.09 -4.173,12.326 -6.475,19.127 h 12.575 c 0.645,-2.055 1.434,-4.311 2.061,-6.611 7.442,-27.272 14.851,-54.553 22.308,-81.82 0.498,-1.822 1.316,-3.555 2.071,-5.558 2.333,1.375 1.859,3.179 1.881,4.719 0.214,15.211 0.429,30.422 0.554,45.634 0.389,47.616 0.739,95.232 1.115,142.848 0.01,1.197 0.138,2.393 0.249,4.202 8.12,-0.903 15.537,-4.092 23.52,-5.35 v 26.805 c -5.054,-1.228 -9.522,-2.314 -14.254,-3.463 -0.616,1.688 -1.11,3.04 -1.752,4.798 5.378,1.673 10.4,3.235 15.685,4.879 v 23.993 c 1.648,0.331 3.043,0.611 5.054,1.014 0.35,-7.783 0.68,-15.12 1.04,-23.096 6.006,2.379 11.035,0.062 16.234,-0.85 0.05,-0.318 0.099,-0.636 0.149,-0.954 -5.259,-1.494 -10.518,-2.987 -16.216,-4.605 0.386,-10.196 0.762,-20.174 1.152,-30.467 6.859,-1.859 13.558,-3.674 20.515,-5.56 -0.469,-61.513 -0.936,-122.763 -1.405,-184.369 5.142,1.043 9.826,1.993 14.487,2.938 0.876,-3.585 -7.94,-125.715 -9.543,-131.74 -1.763,5.484 -4.227,9.791 -3.779,15.021 2.033,23.787 4.009,47.579 5.992,71.37 0.971,11.668 1.924,23.338 2.848,35.009 0.117,1.47 0.016,2.956 0.016,4.672 -1.701,0 -3.051,0.161 -4.35,-0.028 -5.198,-0.757 -5.753,-1.402 -5.766,-6.695 -0.029,-10.948 -0.009,-21.895 -0.009,-33.069 -1.644,-0.822 -3.091,-1.598 -4.579,-2.282 -5.938,-2.728 -11.828,-5.574 -17.862,-8.072 -2.692,-1.115 -3.555,-2.852 -3.688,-5.523 -0.362,-7.291 -0.854,-14.576 -1.311,-21.862 -1.019,-16.215 -2.048,-32.429 -3.262,-48.639 v 46.052 46.377 c -1.251,-0.473 -2.451,-0.99 -3.692,-1.38 -2.546,-0.802 -3.443,-2.518 -3.461,-5.138 -0.058,-8.366 -0.296,-16.73 -0.433,-25.096 -0.094,-5.78 -0.34,-11.57 -0.124,-17.339 0.134,-3.568 -1.193,-5.79 -4.343,-7.131 -0.142,0.055 -0.294,0.092 -0.42,0.17 -0.113,0.071 -0.225,0.173 -0.289,0.288 -0.071,0.129 -0.125,0.289 -0.125,0.436 -0.006,15.967 -0.005,31.934 -0.005,47.724 -2.848,1.765 -5.578,3.455 -9.109,5.643 2.834,1.447 4.741,2.608 6.789,3.41 1.84,0.721 2.556,1.802 2.541,3.759 -0.035,4.561 0.069,9.126 0.197,13.687 0.038,1.352 0.042,2.848 0.622,3.994 0.458,0.905 1.751,1.875 2.717,1.921 1.445,0.069 2.44,-1.077 2.435,-2.717 -0.009,-2.434 -0.044,-4.868 -0.051,-7.302 -0.01,-3.32 -0.003,-6.639 -0.003,-10.226 h 7.067 c 0.818,10.679 0.32,21.323 0.501,32.888 -11.8,-5.845 -22.777,-11.282 -33.911,-16.797 -0.079,-1.472 -0.223,-2.814 -0.213,-4.155 0.248,-32.556 0.468,-65.112 0.841,-97.665 0.039,-3.435 0.838,-6.894 1.58,-10.277 0.711,-3.24 1.806,-6.394 2.8,-9.821 -3.273,-2.401 -6.423,-4.712 -10.24,-7.513 -19.369,63.952 -38.268,127.414 -57.435,190.794 -0.337,-0.037 -0.673,-0.074 -1.009,-0.112 -0.2,-0.926 -0.504,-1.843 -0.584,-2.779 -1.457,-17.125 -2.89,-34.252 -4.323,-51.378 -2.015,-24.101 -4.04,-48.199 -6.036,-72.301 -1.656,-20.009 -3.503,-40.006 -4.768,-60.039 -0.346,-5.485 -2.357,-9.117 -6.826,-11.828 -0.728,3.472 2.536,43.268 4.659,63.806 2.187,21.152 3.722,42.37 5.592,64.141 -13.358,-0.583 -25.43,3.026 -37.707,9.091 0.836,-46.721 1.658,-92.679 2.48,-138.637 -0.355,-0.132 -0.71,-0.265 -1.064,-0.396 -3.131,3.993 -6.345,7.926 -9.325,12.029 -0.621,0.854 -0.492,2.331 -0.521,3.525 -0.754,30.109 -1.448,60.219 -2.226,90.327 -0.769,29.802 -1.619,59.603 -2.434,89.404 -0.004,0.152 -0.007,0.305 -0.013,0.456 -0.138,3.373 -1.057,5.146 -3.032,5.448 -2.54,0.389 -3.88,-1.313 -5.017,-3.2 -28.692,-47.607 -65.249,-88.945 -103.189,-129.149 -16.919,-17.929 -34.637,-35.063 -53.728,-50.714 -2.111,-1.731 -4.345,-3.316 -6.563,-4.91 -0.303,-0.217 -0.85,-0.096 -1.657,-0.163" /></g><g
           transform="translate(263.917,365.4457)"
           id="g24"><path
             id="path26"
             style="fill:#2b2b2a;fill-opacity:1;fill-rule:nonzero;stroke:none"
             d="m 0,0 c -3.467,-1.99 -6.197,-3.587 -8.957,-5.132 -2.883,-1.614 -4.736,-1.629 -5.73,-0.122 -1.148,1.741 -0.139,3.615 2.903,5.166 2.975,1.518 5.964,3.018 9.007,4.392 1.924,0.867 2.662,2.126 2.525,4.262 -0.331,5.157 -0.457,10.326 -0.676,15.49 -0.039,0.91 -0.319,1.859 -0.137,2.715 0.165,0.785 0.679,1.914 1.267,2.079 0.664,0.185 1.986,-0.314 2.309,-0.906 0.771,-1.407 1.443,-3.015 1.581,-4.593 0.358,-4.084 0.393,-8.197 0.589,-12.296 0.034,-0.71 0.23,-1.411 0.442,-2.646 3.72,1.735 7.111,3.315 11.088,5.169 C 15.139,10.2 13.557,7.61 10.794,6.544 5.37,4.45 4.601,0.653 4.924,-4.596 5.689,-17.023 5.882,-29.487 5.938,-42.058 3.81,-37.926 1.655,-33.834 1.47,-28.986 1.158,-20.784 0.789,-12.585 0.423,-4.385 0.371,-3.207 0.2,-2.033 0,0" /></g></g></g></g></svg>
