<?xml version="1.0" encoding="UTF-8" standalone="no"?>
<!-- Created with Inkscape (http://www.inkscape.org/) -->

<svg
   width="58.016911mm"
   height="59.163399mm"
   viewBox="0 0 58.016911 59.163399"
   version="1.1"
   id="svg1"
   xml:space="preserve"
   xmlns="http://www.w3.org/2000/svg"
   xmlns:svg="http://www.w3.org/2000/svg"><defs
     id="defs1" /><g
     id="layer1"
     transform="translate(-61.21539,-87.04524)"><path
       style="fill:#000000;stroke-width:0.365461"
       d="m 61.412547,145.99695 c -0.196606,-0.21104 -0.197157,-0.25237 -0.197157,-14.80077 v -14.58915 l 2.127287,-7.23265 2.127286,-7.23265 v -3.041669 c 0,-3.56892 0.02247,-3.69137 0.824654,-4.49355 0.834851,-0.83485 0.559397,-0.80655 7.849008,-0.80655 h 6.317882 l 0.360684,-0.22575 c 0.778479,-0.48727 9.291971,-5.37551 9.856447,-5.65934 0.329913,-0.16589 0.982604,-0.42167 1.450423,-0.56841 l 0.850585,-0.26679 12.812064,-0.0274 c 7.04664,-0.0151 12.90251,-0.005 13.01305,0.0219 0.40731,0.0998 0.42754,0.33072 0.42754,4.88246 0,4.12487 -0.009,4.34712 -0.18482,4.56428 l -0.18482,0.22828 -3.6588,0.0235 c -2.01234,0.0129 -3.78625,0.0238 -3.94201,0.0242 -0.23077,5.5e-4 -0.45457,0.17665 -1.20868,0.951 -1.01992,1.04729 -2.12795,1.96174 -2.92263,2.412009 -0.28431,0.16109 -0.95205,0.43103 -1.48387,0.59987 -0.53182,0.16884 -1.31505,0.4172 -1.7405,0.55191 -0.42546,0.1347 -1.07815,0.39554 -1.45043,0.57963 -0.95313,0.47132 -2.17563,1.28651 -2.17563,1.45076 0,0.076 0.45356,1.66964 1.0079,3.54134 0.55435,1.8717 1.4246,4.82278 1.9339,6.55796 l 0.92599,3.15486 v 14.59458 c 0,14.55387 -7.3e-4,14.59517 -0.19716,14.80621 l -0.19715,0.21162 H 82.681645 61.609703 Z m 33.069811,-15.33208 0.0039,-14.28666 1.52918,-5.17318 c 0.841046,-2.84524 1.512719,-5.1923 1.4926,-5.21569 -0.02014,-0.0234 -0.786168,0.70216 -1.702334,1.61232 -1.054713,1.04779 -1.765414,1.67963 -1.937425,1.72243 -0.149415,0.0372 -0.475585,0.0446 -0.724826,0.0165 -0.402372,-0.0453 -0.514964,-0.11683 -1.004634,-0.6378 -0.634736,-0.6753 -1.155115,-1.67667 -1.38939,-2.67362 -0.155241,-0.66062 -0.147913,-1.98002 0.01568,-2.82565 l 0.0608,-0.31426 h -12.14618 c -6.680398,0 -12.146177,0.0205 -12.146177,0.0456 0,0.0251 -0.913766,3.15306 -2.030592,6.95106 l -2.030591,6.90546 v 14.08007 14.08007 h 16.002998 16.002994 z m 6.159912,12.95755 -1.329111,-1.32911 -1.329116,1.32911 -1.329115,1.32911 h 2.658231 2.658231 z m -1.98322,-11.75405 c 0.025,-9.04819 0.03008,-9.27223 0.21329,-9.4062 0.251196,-0.18365 0.627248,-0.1735 0.844156,0.0228 0.168963,0.1529 0.176832,0.57134 0.176832,9.4024 v 9.24238 l 1.425042,1.42741 c 0.78377,0.78509 1.45822,1.42742 1.49877,1.42742 0.0406,0 0.0737,-6.12103 0.0737,-13.6023 v -13.60231 l -1.75017,-5.95423 c -0.9626,-3.27482 -1.779971,-6.00822 -1.816382,-6.07421 -0.0364,-0.066 -0.343529,0.82602 -0.682487,1.98224 -0.338958,1.15623 -0.822627,2.79843 -1.07482,3.64935 -0.252194,0.85091 -0.767468,2.60135 -1.145048,3.88986 l -0.68651,2.34274 v 13.70739 13.7074 l 1.449004,-1.44659 1.449001,-1.44659 z m -2.154805,-26.68623 c 1.963515,-1.9467 3.205106,-3.09952 3.703005,-3.43823 1.11894,-0.76118 2.75418,-1.5065 4.18239,-1.906269 0.69136,-0.19352 1.50315,-0.47257 1.80396,-0.62011 0.81492,-0.39968 1.85097,-1.22186 2.92385,-2.32026 0.52619,-0.53871 1.09185,-1.05349 1.25703,-1.14396 0.26273,-0.1439 0.75424,-0.17054 3.92638,-0.21284 l 3.62606,-0.0483 0.0254,-3.604 0.0254,-3.604 -12.45064,0.0263 -12.450645,0.0263 -0.676863,0.22857 c -0.952997,0.32183 -1.186607,0.44681 -5.511602,2.94882 l -3.867798,2.23752 8.299398,0.0483 c 8.074557,0.047 8.303113,0.0534 8.436627,0.23604 0.340043,0.4651 0.307283,0.50576 -3.469419,4.30577 -3.790541,3.813929 -3.972676,4.034809 -4.270801,5.179399 -0.264074,1.01384 -0.134054,2.4077 0.305957,3.27995 0.267696,0.53068 0.902429,1.30967 1.067127,1.30967 0.08873,0 1.490602,-1.3179 3.11528,-2.92866 z m -4.842283,-3.86415 c 0.108271,-0.17284 1.504226,-1.619369 3.102119,-3.214499 1.597897,-1.59513 2.905264,-2.93315 2.905264,-2.97337 0,-0.0402 -6.711831,-0.0724 -14.915178,-0.0715 l -14.91518,0.002 -0.376713,0.21598 c -0.710453,0.40731 -0.735278,0.52962 -0.735278,3.62296 v 2.733129 H 79.09605 91.465103 Z"
       id="path1" /><path
       style="fill:none;stroke-width:0.808676"
       d="M 4.7774626,165.70727 V 112.67501 L 11.665205,89.225217 c 3.788259,-12.897388 7.25366,-24.72322 7.700892,-26.279629 L 20.179246,60.115753 42.962972,60.00233 C 55.494022,59.93995 76.1079,59.888906 88.771588,59.888906 h 23.024892 l -0.10204,0.554527 c -0.55362,3.008509 -0.70734,8.560862 -0.29571,10.68103 0.51027,2.628255 1.93045,5.997697 3.56969,8.469266 1.07293,1.617719 3.36372,3.989818 4.21221,4.361728 0.85705,0.375662 2.55238,0.571438 3.64597,0.421031 1.15383,-0.158692 2.54255,-1.301729 7.81206,-6.429968 6.97354,-6.786603 6.41238,-6.277838 6.27319,-5.687399 -0.29407,1.247398 -3.65841,12.85735 -7.33515,25.312734 l -3.99768,13.542655 v 53.81251 53.81252 H 65.178239 4.7774626 Z"
       id="path2"
       transform="matrix(0.26458333,0,0,0.26458333,61.21539,87.04524)" /><path
       style="fill:none;stroke-width:0.808676"
       d="M 4.7774626,165.70727 V 112.67501 L 11.665205,89.225217 c 3.788259,-12.897388 7.25366,-24.72322 7.700892,-26.279629 L 20.179246,60.115753 42.962972,60.00233 C 55.494022,59.93995 76.1079,59.888906 88.771588,59.888906 h 23.024892 l -0.10204,0.554527 c -0.55362,3.008509 -0.70734,8.560862 -0.29571,10.68103 0.51027,2.628255 1.93045,5.997697 3.56969,8.469266 1.07293,1.617719 3.36372,3.989818 4.21221,4.361728 0.85705,0.375662 2.55238,0.571438 3.64597,0.421031 1.15383,-0.158692 2.54255,-1.301729 7.81206,-6.429968 6.97354,-6.786603 6.41238,-6.277838 6.27319,-5.687399 -0.29407,1.247398 -3.65841,12.85735 -7.33515,25.312734 l -3.99768,13.542655 v 53.81251 53.81252 H 65.178239 4.7774626 Z"
       id="path3"
       transform="matrix(0.26458333,0,0,0.26458333,61.21539,87.04524)" /><path
       style="fill:none;stroke-width:0.808676"
       d="M 130.5271,163.55849 V 111.8759 l 5.72757,-19.467141 c 6.00224,-20.400735 7.52172,-25.315033 7.75251,-25.07316 0.15682,0.164347 2.32991,7.41676 8.96511,29.919889 l 4.553,15.441442 -0.12159,49.90742 c -0.0669,27.44908 -0.17178,50.48306 -0.23311,51.18663 l -0.11151,1.2792 -5.4173,-5.3544 -5.4173,-5.3544 -0.008,-32.69421 c -0.005,-17.98181 -0.0737,-33.76646 -0.15351,-35.07701 -0.13832,-2.27089 -0.16601,-2.40077 -0.58948,-2.76503 -0.57047,-0.4907 -1.50156,-0.66275 -2.29694,-0.42445 -1.08191,0.32415 -1.20906,0.50501 -1.39866,1.98949 -0.10917,0.85479 -0.22473,14.00886 -0.30928,35.20472 l -0.13498,33.84003 -5.40308,5.40308 -5.40308,5.40308 z"
       id="path4"
       transform="matrix(0.26458333,0,0,0.26458333,61.21539,87.04524)" /><path
       style="fill:none;stroke-width:0.808676"
       d="m 139.10131,213.83448 4.90506,-4.90506 4.90506,4.90506 4.90506,4.90506 h -9.81012 -9.81012 z"
       id="path5"
       transform="matrix(0.26458333,0,0,0.26458333,61.21539,87.04524)" /><path
       style="fill:#ffffff;stroke-width:0.808676"
       d="M 4.7774626,165.70727 V 112.67501 L 11.665205,89.225217 c 3.788259,-12.897388 7.25366,-24.72322 7.700892,-26.279629 L 20.179246,60.115753 42.962972,60.00233 C 55.494022,59.93995 76.1079,59.888906 88.771588,59.888906 h 23.024892 l -0.10204,0.554527 c -0.55362,3.008509 -0.70734,8.560862 -0.29571,10.68103 0.51027,2.628255 1.93045,5.997697 3.56969,8.469266 1.07293,1.617719 3.36372,3.989818 4.21221,4.361728 0.85705,0.375662 2.55238,0.571438 3.64597,0.421031 1.15383,-0.158692 2.54255,-1.301729 7.81206,-6.429968 6.97354,-6.786603 6.41238,-6.277838 6.27319,-5.687399 -0.29407,1.247398 -3.65841,12.85735 -7.33515,25.312734 l -3.99768,13.542655 v 53.81251 53.81252 H 65.178239 4.7774626 Z"
       id="path6"
       transform="matrix(0.26458333,0,0,0.26458333,61.21539,87.04524)" /><path
       style="fill:#ffffff;stroke-width:0.808676"
       d="M 130.5271,163.55849 V 111.8759 l 5.72757,-19.467141 c 6.00224,-20.400735 7.52172,-25.315033 7.75251,-25.07316 0.15682,0.164347 2.32991,7.41676 8.96511,29.919889 l 4.553,15.441442 -0.12159,49.90742 c -0.0669,27.44908 -0.17178,50.48306 -0.23311,51.18663 l -0.11151,1.2792 -5.4173,-5.3544 -5.4173,-5.3544 -0.008,-32.69421 c -0.005,-17.98181 -0.0737,-33.76646 -0.15351,-35.07701 -0.13832,-2.27089 -0.16601,-2.40077 -0.58948,-2.76503 -0.57047,-0.4907 -1.50156,-0.66275 -2.29694,-0.42445 -1.08191,0.32415 -1.20906,0.50501 -1.39866,1.98949 -0.10917,0.85479 -0.22473,14.00886 -0.30928,35.20472 l -0.13498,33.84003 -5.40308,5.40308 -5.40308,5.40308 z"
       id="path7"
       transform="matrix(0.26458333,0,0,0.26458333,61.21539,87.04524)" /><path
       style="fill:#ffffff;stroke-width:0.808676"
       d="m 139.10131,213.83448 4.90506,-4.90506 4.90506,4.90506 4.90506,4.90506 h -9.81012 -9.81012 z"
       id="path8"
       transform="matrix(0.26458333,0,0,0.26458333,61.21539,87.04524)" /><path
       style="fill:#ffffff;stroke-width:0.808676"
       d="m 21.027061,44.916679 c 0.05559,-9.130053 0.09313,-10.288567 0.359433,-11.092942 0.391586,-1.182791 1.064986,-1.91902 2.525376,-2.760998 l 1.199785,-0.691727 45.32825,1.47e-4 c 44.029015,1.42e-4 67.082765,0.114646 67.082765,0.333189 0,0.0587 -4.66442,4.830024 -10.36538,10.602952 -10.3633,10.494111 -11.99367,12.209454 -12.59333,13.249616 l -0.31968,0.554527 H 67.604632 20.964987 Z"
       id="path9"
       transform="matrix(0.26458333,0,0,0.26458333,61.21539,87.04524)" /><path
       style="fill:#e6e6e6;stroke-width:0.808676"
       d="m 120.60457,78.700165 c -3.39751,-3.644438 -4.77322,-7.581142 -4.5321,-12.969016 0.21208,-4.739037 1.43032,-7.251752 5.76919,-11.899383 0.96369,-1.032273 5.86993,-6.061406 10.90276,-11.17585 10.63504,-10.807501 11.94257,-12.188715 12.82567,-13.548379 1.10227,-1.697117 0.73812,-2.889399 -0.97676,-3.198108 -0.46359,-0.08345 -9.40394,-0.229484 -19.86743,-0.324511 -10.4635,-0.09503 -24.14761,-0.227936 -30.40913,-0.295353 L 82.93218,25.16699 90.733673,20.65181 C 112.47967,8.0661291 114.38242,7.0319982 118.15947,5.7460239 l 2.2207,-0.7560795 47.07497,-0.1279109 47.07497,-0.1279109 -0.11315,6.5480254 c -0.0622,3.601414 -0.11326,9.704219 -0.1134,13.561789 l -2.4e-4,7.013763 -10.10945,0.119498 c -11.04267,0.130529 -16.73008,0.330978 -17.78752,0.626911 -0.91323,0.255575 -1.6463,0.871692 -5.45995,4.588915 -3.46742,3.379736 -5.33661,5.015873 -7.49332,6.559024 -2.76782,1.980412 -4.44314,2.722163 -9.89138,4.37943 -4.51735,1.374104 -7.21067,2.438277 -10.93883,4.322097 -5.35193,2.704304 -6.68186,3.752878 -14.97495,11.806881 -13.44716,13.059502 -15.76636,15.250171 -16.1449,15.250171 -0.0786,0 -0.4829,-0.364708 -0.89845,-0.810462 z"
       id="path10"
       transform="matrix(0.26458333,0,0,0.26458333,61.21539,87.04524)" /></g></svg>
